# xmcd
#
# Track frame offsets:
#  150
#  12304
#  28760
#  49099
#  62168
#  76153
#  90869
#  104211
#  123455
#  140719
#  152392
#  170980
#  184252
#  200125
#  210757
#  225183
#
# Disc length: 3246 seconds
#
# Revision: 1
# Processed by: cddbd v1.5.2PL0 Copyright (c) Steve Scherf et al.
# Submitted via: AltoMP3_Maker 3.0
#
DISCID=d50cac10
DTITLE=Various Artist - Superstars of Country - Vol 1 Disc 1
DYEAR=2005
DGENRE=Country
TTITLE0=Stand By Your Man
TTITLE1=Lucille
TTITLE2=Suspicious Minds
TTITLE3=Rose Garden
TTITLE4=Wichita Lineman
TTITLE5=Harper Valley PTA
TTITLE6=It's Four in the Morning
TTITLE7=Ode to Billy Joe
TTITLE8=For the Good Times
TTITLE9=Help Me make it Through the Night
TTITLE10=I Believe In You
TTITLE11=Here You Come Again
TTITLE12=Thank God I'm a Country Bot
TTITLE13=Mister Sandman
TTITLE14=I Love a Rainy Night
TTITLE15=I Can Help
EXTD=
EXTT0=
EXTT1=
EXTT2=
EXTT3=
EXTT4=
EXTT5=
EXTT6=
EXTT7=
EXTT8=
EXTT9=
EXTT10=
EXTT11=
EXTT12=
EXTT13=
EXTT14=
EXTT15=
PLAYORDER=
